<?xml version="1.0" standalone="no"?>
<!DOCTYPE svg PUBLIC "-//W3C//DTD SVG 20010904//EN"
 "http://www.w3.org/TR/2001/REC-SVG-20010904/DTD/svg10.dtd">
<svg version="1.0" xmlns="http://www.w3.org/2000/svg"
 width="630.000000pt" height="467.000000pt" viewBox="0 0 630.000000 467.000000"
 preserveAspectRatio="xMidYMid meet">

<g transform="translate(0.000000,467.000000) scale(0.100000,-0.100000)"
fill="#000000" stroke="none">
<path d="M1135 4369 c-99 -44 -182 -83 -184 -85 -5 -5 -29 -94 -166 -619 -57
-220 -142 -548 -190 -730 -48 -181 -99 -379 -115 -440 -16 -60 -60 -232 -99
-381 -39 -149 -71 -283 -71 -297 0 -13 -14 -83 -31 -153 -19 -80 -33 -167 -36
-229 -4 -91 -2 -104 19 -145 60 -117 231 -134 733 -75 116 14 218 25 227 25 9
0 85 81 170 181 202 240 192 222 114 196 l-65 -21 -413 148 c-330 119 -419
154 -441 177 -15 16 -39 32 -52 35 -14 3 -25 10 -25 14 0 4 68 162 151 351 82
189 170 389 194 444 24 55 90 204 146 330 56 127 128 293 161 370 32 77 62
143 67 148 9 9 71 -11 71 -24 0 -4 -97 -216 -216 -471 -303 -649 -344 -737
-344 -748 0 -11 49 -14 73 -4 8 3 139 273 292 600 271 581 279 596 304 591 14
-2 193 -62 396 -131 204 -70 460 -158 570 -196 110 -37 279 -96 375 -129 96
-34 265 -91 375 -127 110 -37 205 -71 211 -76 7 -5 63 -94 125 -198 63 -105
116 -190 119 -190 3 0 48 71 100 157 138 229 168 254 329 263 l94 5 -111 130
-111 130 -1 63 c0 77 -14 93 -95 111 -45 10 -68 22 -94 48 -57 58 -138 79
-206 53 -23 -9 -74 3 -299 66 -149 42 -397 111 -551 154 -248 69 -293 84 -380
132 -55 31 -247 133 -427 227 -181 95 -328 176 -328 180 0 5 14 39 31 76 16
37 28 73 26 79 -4 10 -54 24 -222 62 -11 2 -97 -30 -200 -77z m557 -341 c205
-108 279 -148 268 -148 -3 0 -124 33 -270 74 -192 53 -266 78 -268 89 -4 19
35 97 48 97 5 0 105 -50 222 -112z"/>
<path d="M3916 2896 c-86 -32 -102 -53 -320 -413 -54 -90 -101 -163 -106 -163
-4 0 -92 128 -196 284 l-188 284 -37 -19 c-21 -10 -41 -24 -44 -30 -4 -6 86
-150 199 -321 l207 -309 -75 -122 c-40 -67 -79 -140 -85 -162 -7 -26 -11 -185
-11 -451 l0 -411 36 -46 37 -47 491 0 491 0 51 98 c28 53 164 311 302 573 139
261 252 482 252 491 0 9 -44 131 -99 271 -54 140 -102 272 -106 293 -14 78
-69 150 -145 190 -31 17 -64 19 -325 21 -229 2 -298 0 -329 -11z m424 -676 l0
-570 -480 0 -480 0 0 125 c0 105 3 132 20 164 53 105 445 770 467 793 51 53
72 58 281 58 l192 0 0 -570z m143 559 c55 -15 122 -84 137 -139 6 -25 38 -137
71 -248 34 -112 63 -218 66 -236 4 -28 -12 -62 -117 -242 -187 -319 -221 -374
-231 -374 -10 0 -13 1233 -2 1243 9 10 32 9 76 -4z m-143 -1249 l0 -60 -415 0
c-456 0 -447 -1 -499 60 -52 63 -73 60 444 60 l470 0 0 -60z"/>
<path d="M4939 2078 c-48 -96 -388 -745 -476 -911 -52 -98 -93 -180 -91 -182
2 -2 269 -7 595 -11 l591 -7 46 39 45 39 1 254 0 253 -131 207 -131 206 -151
78 c-142 72 -156 77 -214 77 l-63 0 -21 -42z m339 -470 c-3 -23 -5 -23 -153
-23 -148 0 -150 0 -153 23 l-3 22 156 0 156 0 -3 -22z m2 -93 l0 -25 -155 0
-155 0 0 25 0 25 155 0 155 0 0 -25z m0 -90 l0 -25 -155 0 -155 0 0 25 0 25
155 0 155 0 0 -25z m-2 -92 l3 -23 -155 0 c-145 0 -156 1 -156 18 0 10 3 22 7
26 4 3 72 5 152 4 143 -3 146 -3 149 -25z m0 -90 l3 -23 -155 0 c-145 0 -156
1 -156 18 0 10 3 22 7 26 4 3 72 5 152 4 143 -3 146 -3 149 -25z"/>
<path d="M3574 936 c-3 -8 -4 -31 -2 -52 l3 -39 848 -3 847 -2 0 55 0 55 -845
0 c-714 0 -846 -2 -851 -14z"/>
<path d="M3460 775 l0 -55 985 -2 985 -3 0 58 0 57 -985 0 -985 0 0 -55z"/>
<path d="M3019 684 c-26 -7 -68 -29 -95 -47 -161 -111 -187 -345 -54 -490 57
-63 118 -95 202 -108 39 -6 609 -9 1493 -7 l1430 3 62 29 c73 34 144 104 175
173 32 74 31 191 -4 264 -33 72 -94 134 -167 168 l-56 26 -1470 2 c-1252 1
-1477 0 -1516 -13z m192 -230 c42 -21 64 -75 49 -119 -29 -87 -158 -85 -191 3
-14 37 7 90 45 113 38 23 58 24 97 3z m2749 1 c37 -19 50 -43 50 -93 0 -51
-43 -92 -96 -92 -103 0 -138 128 -50 181 38 23 58 24 96 4z"/>
</g>
</svg>
